<?xml version="1.0" standalone="no"?>
<!DOCTYPE svg PUBLIC "-//W3C//DTD SVG 20010904//EN"
 "http://www.w3.org/TR/2001/REC-SVG-20010904/DTD/svg10.dtd">
<svg version="1.0" xmlns="http://www.w3.org/2000/svg"
 width="64.000000pt" height="64.000000pt" viewBox="0 0 64.000000 64.000000"
 preserveAspectRatio="xMidYMid meet">

<g transform="translate(0.000000,64.000000) scale(0.100000,-0.100000)"
fill="#000000" stroke="none">
<path d="M277 602 c-23 -25 -47 -86 -47 -120 0 -25 -3 -29 -24 -25 -34 7 -56
-54 -56 -158 0 -75 -2 -83 -25 -101 -20 -16 -25 -28 -25 -65 0 -36 4 -46 20
-50 15 -4 18 -11 14 -33 -8 -36 2 -38 191 -35 205 3 189 0 182 34 -5 23 -2 30
13 34 16 4 20 14 20 51 0 38 -4 48 -25 62 -23 15 -25 22 -25 100 0 107 -21
168 -56 161 -21 -4 -24 0 -24 25 0 34 -24 95 -47 120 -21 23 -65 23 -86 0z
m77 -34 c23 -32 20 -39 -9 -26 -19 8 -31 8 -50 0 -14 -6 -25 -8 -25 -4 0 18
33 52 50 52 10 0 26 -10 34 -22z m6 -80 c17 -28 20 -51 20 -160 0 -123 9 -161
31 -127 7 11 17 9 56 -11 37 -19 49 -31 51 -52 l3 -28 -95 0 -96 0 0 40 c0 22
-4 40 -10 40 -5 0 -10 -18 -10 -40 l0 -40 -95 0 c-92 0 -95 1 -95 23 0 33 11
44 63 66 40 17 47 18 47 5 0 -9 6 -14 13 -12 8 3 13 44 17 139 4 109 9 139 24
162 25 36 52 34 76 -5z m-132 -158 c3 -53 1 -69 -13 -83 -9 -9 -21 -17 -26
-17 -13 0 -11 157 2 182 11 20 12 20 22 3 5 -10 12 -48 15 -85z m232 -17 c0
-46 -3 -83 -7 -83 -37 1 -54 83 -33 160 11 41 13 43 26 25 9 -12 14 -46 14
-102z m-232 -250 c-2 -12 -14 -19 -36 -21 -34 -3 -35 -2 -26 22 9 23 67 22 62
-1z m152 -3 c0 -18 -7 -20 -60 -20 -53 0 -60 2 -60 20 0 18 7 20 60 20 53 0
60 -2 60 -20z m94 5 c4 -12 -3 -15 -29 -15 -24 0 -35 5 -35 15 0 10 10 15 29
15 16 0 31 -6 35 -15z"/>
<path d="M303 408 c2 -7 10 -13 17 -13 7 0 15 6 18 13 2 7 -5 12 -18 12 -13 0
-20 -5 -17 -12z"/>
</g>
</svg>
